<?xml version="1.0" encoding="utf-8"?>
<!-- Generator: Adobe Illustrator 24.0.1, SVG Export Plug-In . SVG Version: 6.00 Build 0)  -->
<svg version="1.2" baseProfile="tiny" id="Layer_1" xmlns="http://www.w3.org/2000/svg" xmlns:xlink="http://www.w3.org/1999/xlink"
	 x="0px" y="0px" viewBox="0 0 432 128" xml:space="preserve">
<path fill="#F5F5F4" d="M418.7,91c0.1-3.3-1.1-4.3-4.3-4.4c-6-0.1-12.2,0.3-17.8-1.1c-10.3-2.6-20.2-6.5-30.4-9.8
	c-2.8-0.9-4.9-2.4-6.4-5.1c-3.2-5.7-8.5-8.8-14.6-10.5c-3.2-0.9-6.1-1.6-6.3-5.7c-0.1-1.3-1-2.2-2.4-1.9c-1.2,0.2-1.3,1.3-1.5,2.3
	c-1.1,6.1-5,8.5-11.1,6.5c-3.2-1-6.4-1.5-9.8-1.5c-9.2,0.1-18.3,0-27.5,0c-1.5,0-3.6,0.3-4.3-0.5c-4.4-4.7-10.8-6.2-15.3-10.6
	c-5.5-5.2-12-5.8-19.1-4.3c-11.7,2.5-23.5,4.7-35.1,7.3c-4.3,1-8-2.2-12.2-1.3c0.7-2.9,1.3-5.7,2-8.6c0.2-1,0.4-2,0.5-2.9
	c0.1-1.5,0.6-3.3-1.3-3.8c-2.3-0.6-2.6-2.3-3.2-4c-0.5-1.4-1.1-3-2.9-3c-4-0.1-8.1,0-12.4,0c0.9,2.5,4,3.4,2.7,5.7
	c-1.2,2.1-3.7,1-5.5,1c-16.3-0.2-32.6-0.1-48.9-0.9c-9.4-0.4-18,1.8-26.6,5.2C90,45,75.3,51.3,61.5,59.4c-3.2,1.9-4.7,1.1-5.9-2.1
	c-1.1-3.1-2.7-6.1-3.9-9.2c-1.1-2.8-2.6-4.1-5.9-4.1c-11.3,0.2-22.6,0.1-34,0.1c-5.2,0-5.5,0.4-3.3,5.4C12,57.3,15.5,65,19,72.7
	c0.7,1.5,2,3.3-1.2,3.3c-2.7,0-4.9,0-4.6,3.8c0.2,3.5,0.1,6.7,4.7,7.5c3.7,0.6,7.3,0.3,11,0.4c1.7,0.1,3.6-0.1,3.8,2.2
	c0.7,6.2,4.5,10.9,7.8,15.9c1.2-0.1,2.4,0.3,3.2,1.1c-0.7-0.8-1.9-1.2-3.2-1.1c-2.8,2-6.2,2-9.4,2.3c-1.5,0.1-3.4,0-3.3,2
	c0.1,1.6,1.6,2.4,3.2,2.7c5.4,0.7,10.8,1.8,16.2,2c22.4,0.6,44.9,0.7,67.3,0.8c66.2,0.3,132.4,1.5,198.6-0.7
	c13.9-0.5,27.8,1.1,41.7,0.3c14.9-0.9,29.8-1.8,44.8-1.4c3.1,0.1,6.2-0.6,9.4-0.9c1.5-0.2,2.7-0.7,2.7-2.3c0-1.6-1.2-2.2-2.7-2.3
	c-3.5-0.3-6.9-1-10.4-1c-13.6,0-27.2-1.7-40.8-1.1c-1.5,0.1-3.6,0.5-3.7-2c2-1.1,3-3.1,4.2-4.8c3-4.2,7.3-2.1,11.1-2.3
	c3.2-0.2,2.3,2.5,2.6,4.3c0.5,2.4,2.6,1.6,4.1,1.6c10.3,0.1,20.6,0.4,31,0.1C421.2,102.6,418.3,105,418.7,91z M227.2,52.8
	c6.8-1.4,13.7-2.4,20.6-3.8c7.4-1.6,13.3,1,19.5,6.6c-16.3,0-31.3,0-47.5,0C222.4,52.9,225,53.2,227.2,52.8z M81.5,104.3
	c13.7,0.3,27.4,0,41.1,1.6c7.3,0.8,14.8-1.4,22.2-0.5c-0.1,1.3-1,1.5-2.1,1.5c-1.7,0-3.3,0-5,0c-21.4,0.3-42.8,0.7-64.2,1
	c0,0,0,0,0,0C75.3,104.8,78.2,104.2,81.5,104.3z M73.2,107.9c-0.3,0-0.7,0-1,0.1C72.5,108,72.8,108,73.2,107.9z M305.7,106.9
	C305.7,106.9,305.7,106.9,305.7,106.9c0-1.9,0-3.9,0.1-5.8c0.1-1.5-0.7-3.7,1.7-3.9c2.3-0.2,5-1.2,6.9,1.1c2.1,2.5,4.1,5.1,6.2,7.6
	C315.7,108.1,310.6,106.4,305.7,106.9z"/>
</svg>
